<svg aria-hidden="true" style="position: absolute; width: 0; height: 0; overflow: hidden;" version="1.1" xmlns="http://www.w3.org/2000/svg" xmlns:xlink="http://www.w3.org/1999/xlink">
<defs>
<symbol id="icon-untitled" viewBox="0 0 120 32">
<path fill="#333" style="fill: var(--color1, #333)" d="M29.296 24.631h2.422v-17.93h6.188v-1.992h-8.61v19.922zM41.935 23.583c0.352-0.601 0.679-1.285 0.837-1.973 0.225-0.955 0.262-2.669 0.318-2.889 0.038-0.147 0.056-4.154 0.056-12.020l4.722 0.009v18.017h2.39v-20.018h-9.358v14.013c-0.018 0.757-0.207 1.726-0.374 2.461-0.117 0.515-0.113 0.698-0.374 1.149-0.192 0.335-0.769 0.7-1.097 0.88-0.316 0.157-0.66 0.236-1.009 0.231v1.285c0.145 0.064 0.297 0.112 0.451 0.143 0.373 0.102 0.757 0.15 1.141 0.143 0.432-0.002 0.857-0.12 1.235-0.343 0.433-0.264 0.798-0.637 1.062-1.087zM56.696 13.687c-0.567-0.627-0.85-1.691-0.851-3.193s0.284-2.565 0.851-3.192c0.567-0.627 1.473-0.941 2.717-0.941h1.92v8.267h-1.92c-1.244-0-2.15-0.314-2.717-0.941zM55.844 17.020c-0.406 0.662-0.686 1.397-0.823 2.166l-0.548 2.423c-0.113 0.504-0.349 0.97-0.686 1.354-0.416 0.37-0.961 0.55-1.509 0.498v1.285c0.171 0.059 0.345 0.106 0.521 0.142 0.367 0.1 0.745 0.148 1.125 0.142 1.555 0 2.607-1.14 3.156-3.421l0.549-2.423c0.238-0.988 0.594-1.662 1.070-2.024 0.44-0.348 0.98-0.539 1.536-0.541h1.098v8.123h2.47v-19.667c-0.686-0.207-1.389-0.355-2.099-0.442-0.761-0.089-1.526-0.132-2.291-0.128-0.943-0.019-1.885 0.092-2.8 0.328-0.701 0.18-1.344 0.543-1.866 1.055-0.497 0.521-0.856 1.164-1.044 1.867-0.236 0.892-0.347 1.813-0.329 2.736-0.014 0.764 0.097 1.525 0.329 2.252 0.191 0.592 0.479 1.146 0.851 1.639 0.324 0.427 0.731 0.781 1.193 1.040 0.415 0.235 0.864 0.399 1.331 0.485v0.115c-0.509 0.178-0.945 0.529-1.234 0.995zM75.83 4.709v8.823h-5.846v-8.823h-2.505v19.922h2.505v-9.107h5.846v9.107h2.505v-19.922h-2.505zM84.556 15.239h6.055v-1.992h-6.055v-6.546h6.881v-1.992h-9.358v19.922h9.358v-1.992h-6.88v-7.4zM105.258 28.845h1.527v-6.247h-1.804v-17.889h-2.499v17.889h-5.551v-17.889h-2.499v19.877h9.993c0.080 1.452 0.36 2.886 0.834 4.26zM113.748 14.628c1.244 0 2.15 0.318 2.717 0.955s0.85 1.743 0.851 3.32c0 1.577-0.284 2.684-0.851 3.32s-1.473 0.955-2.717 0.955h-1.92v-8.551h1.92zM111.889 12.858v-8.15h-2.483v19.731c0.69 0.208 1.395 0.356 2.11 0.443 0.764 0.089 1.533 0.132 2.303 0.129 0.949 0.020 1.895-0.096 2.813-0.343 0.704-0.189 1.349-0.558 1.875-1.072 0.503-0.531 0.864-1.186 1.048-1.901 0.238-0.923 0.35-1.876 0.331-2.831 0-2.288-0.428-3.908-1.283-4.861s-2.174-1.43-3.958-1.43c-0.478 0.003-0.956 0.032-1.432 0.086-0.445 0.043-0.887 0.11-1.325 0.2z"></path>
<path fill="#ffe30b" style="fill: var(--color2, #ffe30b)" d="M14.283 4.507c-6.53 2.188-12.037 6.649-14.283 13.296 2.22 6.571 7.676 11.082 14.283 13.296 5.875-4.501 9.079-8.115 11.436-13.296-3.383-2.257-4.804-3.419-7.547-6.911-3.675 1.696-6.873 3.672-9.707 6.839 1.017 1.439 2.705 2.783 4.070 3.886 1.989-1.453 3.506-2.868 4.489-4.082 0.616 0.748 1.311 1.246 1.973 1.662-1.709 2.889-3.627 4.476-5.996 5.991-3.558-1.872-6.418-5.111-7.808-7.85 2.605-4.268 6.691-7.15 11.335-8.756-0.752-1.309-1.738-2.528-2.244-4.074z"></path>
<path fill="#333" style="fill: var(--color1, #333)" d="M30.538 30.262c0.687 0 1.163-0.53 1.163-1.374 0-0.849-0.476-1.368-1.163-1.368-0.368 0-0.692 0.189-0.882 0.454v-0.389h-0.406v3.607h0.406v-1.39c0.211 0.292 0.525 0.46 0.882 0.46zM30.435 29.9c-0.319 0-0.638-0.195-0.779-0.422v-1.179c0.141-0.227 0.46-0.416 0.779-0.416 0.525 0 0.838 0.427 0.838 1.006s-0.314 1.011-0.838 1.011z"></path>
<path fill="#333" style="fill: var(--color1, #333)" d="M33.487 30.262c0.795 0 1.293-0.617 1.293-1.374s-0.498-1.368-1.293-1.368c-0.795 0-1.293 0.611-1.293 1.368s0.498 1.374 1.293 1.374zM33.487 29.9c-0.557 0-0.871-0.476-0.871-1.011 0-0.53 0.314-1.006 0.871-1.006s0.865 0.476 0.865 1.006c0 0.535-0.308 1.011-0.865 1.011z"></path>
<path fill="#333" style="fill: var(--color1, #333)" d="M36.366 30.262c0.752 0 1.195-0.325 1.195-0.763 0-0.433-0.454-0.617-0.757-0.638 0.308-0.038 0.703-0.249 0.703-0.638 0-0.444-0.498-0.703-1.201-0.698-0.476 0-0.828 0.168-1.071 0.416l0.211 0.249c0.222-0.227 0.508-0.335 0.876-0.335 0.433 0 0.763 0.168 0.763 0.416 0 0.297-0.341 0.438-0.773 0.438h-0.584v0.33h0.584c0.46 0 0.822 0.108 0.822 0.433 0 0.276-0.303 0.454-0.768 0.454-0.389 0-0.736-0.119-0.979-0.352l-0.2 0.26c0.26 0.26 0.654 0.427 1.179 0.427z"></path>
<path fill="#333" style="fill: var(--color1, #333)" d="M39.506 30.262c0.687 0 1.163-0.53 1.163-1.374 0-0.849-0.476-1.368-1.163-1.368-0.368 0-0.692 0.189-0.882 0.454v-0.389h-0.406v3.607h0.406v-1.39c0.211 0.292 0.525 0.46 0.882 0.46zM39.404 29.9c-0.319 0-0.638-0.195-0.779-0.422v-1.179c0.141-0.227 0.46-0.416 0.779-0.416 0.525 0 0.838 0.427 0.838 1.006s-0.314 1.011-0.838 1.011z"></path>
<path fill="#333" style="fill: var(--color1, #333)" d="M42.455 30.262c0.795 0 1.293-0.617 1.293-1.374s-0.498-1.368-1.293-1.368c-0.795 0-1.293 0.611-1.293 1.368s0.498 1.374 1.293 1.374zM42.455 29.9c-0.557 0-0.871-0.476-0.871-1.011 0-0.53 0.314-1.006 0.871-1.006s0.865 0.476 0.865 1.006c0 0.535-0.308 1.011-0.865 1.011z"></path>
<path fill="#333" style="fill: var(--color1, #333)" d="M45.55 29.9c-0.557 0-0.871-0.476-0.871-1.017 0-0.525 0.314-1.001 0.871-1.001s0.865 0.476 0.865 1.001c0 0.541-0.308 1.017-0.865 1.017zM45.55 30.262c0.806 0 1.287-0.627 1.287-1.379 0-0.741-0.481-1.363-1.222-1.363-0.465 0-0.795 0.26-0.984 0.557 0.092-0.444 0.325-0.779 1.098-0.887 0.444-0.059 1.028-0.173 1.028-0.6h-0.395c0 0.108-0.162 0.178-0.736 0.265-0.909 0.119-1.368 0.644-1.368 1.915 0 0.865 0.492 1.493 1.293 1.493z"></path>
<path fill="#333" style="fill: var(--color1, #333)" d="M49.829 30.197l-1.163-1.428 1.157-1.184h-0.514l-1.374 1.39v-1.39h-0.406v2.612h0.406v-0.746l0.433-0.427 0.941 1.174h0.519z"></path>
<path fill="#333" style="fill: var(--color1, #333)" d="M52.348 30.197v-1.796c0-0.633-0.46-0.882-1.011-0.882-0.427 0-0.763 0.141-1.044 0.433l0.189 0.281c0.233-0.249 0.487-0.362 0.8-0.362 0.379 0 0.66 0.2 0.66 0.552v0.471c-0.211-0.243-0.508-0.357-0.865-0.357-0.444 0-0.914 0.276-0.914 0.86 0 0.568 0.471 0.865 0.914 0.865 0.352 0 0.649-0.124 0.865-0.362v0.297h0.406zM51.223 29.97c-0.379 0-0.644-0.238-0.644-0.568 0-0.335 0.265-0.573 0.644-0.573 0.287 0 0.562 0.108 0.719 0.325v0.492c-0.157 0.216-0.433 0.325-0.719 0.325z"></path>
<path fill="#333" style="fill: var(--color1, #333)" d="M55.437 30.197v-2.255h0.763v-0.357h-1.925v0.357h0.757v2.255h0.406z"></path>
<path fill="#333" style="fill: var(--color1, #333)" d="M58.77 30.197v-1.796c0-0.633-0.46-0.882-1.011-0.882-0.427 0-0.763 0.141-1.044 0.433l0.189 0.281c0.233-0.249 0.487-0.362 0.8-0.362 0.379 0 0.66 0.2 0.66 0.552v0.471c-0.211-0.243-0.508-0.357-0.865-0.357-0.444 0-0.914 0.276-0.914 0.86 0 0.568 0.471 0.865 0.914 0.865 0.352 0 0.649-0.124 0.865-0.362v0.297h0.406zM57.646 29.97c-0.379 0-0.644-0.238-0.644-0.568 0-0.335 0.265-0.573 0.644-0.573 0.287 0 0.562 0.108 0.719 0.325v0.492c-0.157 0.216-0.433 0.325-0.719 0.325z"></path>
<path fill="#333" style="fill: var(--color1, #333)" d="M63.152 30.197v-2.612h-2.174v2.612h0.406v-2.255h1.363v2.255h0.406z"></path>
<path fill="#333" style="fill: var(--color1, #333)" d="M64.162 27.212c0.151 0 0.276-0.119 0.276-0.27s-0.124-0.276-0.276-0.276c-0.146 0-0.27 0.124-0.27 0.276s0.124 0.27 0.27 0.27zM64.368 30.197v-2.612h-0.406v2.612h0.406z"></path>
<path fill="#333" style="fill: var(--color1, #333)" d="M64.868 30.862h0.406v-0.665h1.974v0.665h0.406v-1.022h-0.303v-2.255h-1.817l-0.168 1.287c-0.103 0.773-0.254 0.946-0.498 0.99v1.001zM65.891 27.942h1.055v1.898h-1.552c0.189-0.151 0.314-0.427 0.379-0.919l0.119-0.979z"></path>
<path fill="#333" style="fill: var(--color1, #333)" d="M69.090 30.197v-2.255h0.763v-0.357h-1.925v0.357h0.757v2.255h0.406z"></path>
<path fill="#333" style="fill: var(--color1, #333)" d="M71.672 30.262c0.687 0 1.163-0.53 1.163-1.374 0-0.849-0.476-1.368-1.163-1.368-0.368 0-0.692 0.189-0.882 0.454v-0.389h-0.406v3.607h0.406v-1.39c0.211 0.292 0.525 0.46 0.882 0.46zM71.569 29.9c-0.319 0-0.638-0.195-0.779-0.422v-1.179c0.141-0.227 0.46-0.416 0.779-0.416 0.525 0 0.838 0.427 0.838 1.006s-0.314 1.011-0.838 1.011z"></path>
<path fill="#333" style="fill: var(--color1, #333)" d="M73.869 30.197l1.379-2.034v2.034h0.406v-2.612h-0.4l-1.368 1.996v-1.996h-0.406v2.612h0.389z"></path>
<path fill="#333" style="fill: var(--color1, #333)" d="M79.13 30.197v-2.612h-0.541l-0.79 1.936-0.8-1.936h-0.535v2.612h0.406v-2.050l0.855 2.050h0.151l0.849-2.050v2.050h0.406z"></path>
<path fill="#333" style="fill: var(--color1, #333)" d="M82.238 30.197l-1.163-1.428 1.157-1.184h-0.514l-1.374 1.39v-1.39h-0.406v2.612h0.406v-0.746l0.433-0.427 0.941 1.174h0.519z"></path>
<path fill="#333" style="fill: var(--color1, #333)" d="M84.756 30.197v-1.796c0-0.633-0.46-0.882-1.011-0.882-0.427 0-0.763 0.141-1.044 0.433l0.189 0.281c0.233-0.249 0.487-0.362 0.8-0.362 0.379 0 0.66 0.2 0.66 0.552v0.471c-0.211-0.243-0.508-0.357-0.865-0.357-0.444 0-0.914 0.276-0.914 0.86 0 0.568 0.471 0.865 0.914 0.865 0.352 0 0.649-0.124 0.865-0.362v0.297h0.406zM83.631 29.97c-0.379 0-0.644-0.238-0.644-0.568 0-0.335 0.265-0.573 0.644-0.573 0.287 0 0.562 0.108 0.719 0.325v0.492c-0.157 0.216-0.433 0.325-0.719 0.325z"></path>
<path fill="#333" style="fill: var(--color1, #333)" d="M88.116 30.262c0.476 0 0.757-0.195 0.957-0.454l-0.27-0.249c-0.173 0.233-0.395 0.341-0.665 0.341-0.557 0-0.903-0.433-0.903-1.011s0.346-1.006 0.903-1.006c0.27 0 0.492 0.103 0.665 0.341l0.27-0.249c-0.2-0.26-0.481-0.454-0.957-0.454-0.779 0-1.303 0.595-1.303 1.368 0 0.779 0.525 1.374 1.303 1.374z"></path>
<path fill="#333" style="fill: var(--color1, #333)" d="M91.68 30.197v-1.796c0-0.633-0.46-0.882-1.011-0.882-0.427 0-0.763 0.141-1.044 0.433l0.189 0.281c0.233-0.249 0.487-0.362 0.8-0.362 0.379 0 0.66 0.2 0.66 0.552v0.471c-0.211-0.243-0.508-0.357-0.865-0.357-0.444 0-0.914 0.276-0.914 0.86 0 0.568 0.471 0.865 0.914 0.865 0.352 0 0.649-0.124 0.865-0.362v0.297h0.406zM90.555 29.97c-0.379 0-0.644-0.238-0.644-0.568 0-0.335 0.265-0.573 0.644-0.573 0.287 0 0.562 0.108 0.719 0.325v0.492c-0.157 0.216-0.433 0.325-0.719 0.325z"></path>
<path fill="#333" style="fill: var(--color1, #333)" d="M92.883 30.197l1.379-2.034v2.034h0.406v-2.612h-0.4l-1.368 1.996v-1.996h-0.406v2.612h0.389zM94.527 26.812l-0.2-0.173c-0.168 0.243-0.433 0.389-0.746 0.389-0.319 0-0.579-0.151-0.752-0.389l-0.2 0.173c0.222 0.292 0.568 0.476 0.952 0.476 0.389 0 0.73-0.184 0.946-0.476z"></path>
<path fill="#333" style="fill: var(--color1, #333)" d="M96.359 30.197v-2.255h0.763v-0.357h-1.925v0.357h0.757v2.255h0.406z"></path>
<path fill="#333" style="fill: var(--color1, #333)" d="M97.854 27.212c0.151 0 0.276-0.119 0.276-0.27s-0.124-0.276-0.276-0.276c-0.146 0-0.27 0.124-0.27 0.276s0.124 0.27 0.27 0.27zM98.060 30.197v-2.612h-0.406v2.612h0.406z"></path>
<path fill="#333" style="fill: var(--color1, #333)" d="M100.334 30.197c0.481 0 0.763-0.287 0.763-0.709 0-0.297-0.211-0.573-0.476-0.638 0.222-0.070 0.422-0.281 0.422-0.595 0-0.395-0.276-0.671-0.736-0.671h-1.439v2.612h1.466zM100.253 29.84h-0.979v-0.806h0.979c0.276 0 0.422 0.195 0.422 0.406 0 0.249-0.162 0.4-0.422 0.4zM100.237 28.677h-0.963v-0.736h0.963c0.249 0 0.389 0.146 0.389 0.373 0 0.206-0.135 0.362-0.389 0.362z"></path>
<path fill="#333" style="fill: var(--color1, #333)" d="M114.414 4.056v-2.255h0.763v-0.357h-1.925v0.357h0.757v2.255h0.406z"></path>
<path fill="#333" style="fill: var(--color1, #333)" d="M118.375 4.056v-2.612h-0.541l-0.79 1.936-0.8-1.936h-0.535v2.612h0.406v-2.050l0.855 2.050h0.151l0.849-2.050v2.050h0.406z"></path>
</symbol>
<symbol id="icon-untitled1" viewBox="0 0 51 32">
<path fill="#000" style="fill: var(--color1, #000)" d="M0 0.242h50.909v15.758h-50.909v-15.758z"></path>
<path fill="#fff" style="fill: var(--color2, #fff); stroke: var(--color1, #000)" stroke="#000" stroke-linejoin="miter" stroke-linecap="butt" stroke-miterlimit="4" stroke-width="0.6399" d="M0.32 16.32h50.269v15.118h-50.269v-15.118z"></path>
<path fill="#fff" style="fill: var(--color2, #fff)" d="M9.214 5.333l-1.669 3.19-1.617-3.19h-1.504l2.399 4.361-0.052 0.068c-0.235 0.356-0.504 0.509-0.852 0.509-0.183 0-0.382-0.042-0.608-0.11l-0.339 1.044c0.339 0.136 0.669 0.204 0.991 0.204 0.817 0 1.538-0.458 2.043-1.375l2.59-4.701h-1.382z"></path>
<path fill="#fff" style="fill: var(--color2, #fff)" d="M15.203 11.273h1.599l-2.051-3.072 1.99-2.868h-1.486l-1.599 2.401h-1.008v-2.401h-1.399v5.939h1.399v-2.393h0.973l1.582 2.393z"></path>
<path fill="#fff" style="fill: var(--color2, #fff)" d="M20.095 5.333h-2.634v5.939h1.408v-1.638h1.226c1.625 0 2.642-0.823 2.642-2.147 0-1.332-1.017-2.155-2.642-2.155zM20.017 8.515h-1.147v-2.062h1.147c0.861 0 1.295 0.382 1.295 1.035 0 0.645-0.435 1.027-1.295 1.027z"></path>
<path fill="#fff" style="fill: var(--color2, #fff)" d="M28.019 11.273h1.478l-2.721-5.939h-1.391l-2.712 5.939h1.443l0.539-1.273h2.825l0.539 1.273zM25.108 8.956l0.965-2.274 0.965 2.274h-1.93z"></path>
<path fill="#fff" style="fill: var(--color2, #fff)" d="M30.095 4.807c0.339 0 0.6-0.238 0.6-0.585s-0.261-0.585-0.6-0.585c-0.339 0-0.608 0.238-0.608 0.585s0.269 0.585 0.608 0.585zM31.851 4.807c0.339 0 0.608-0.238 0.608-0.585s-0.269-0.585-0.608-0.585c-0.33 0-0.6 0.238-0.6 0.585s0.269 0.585 0.6 0.585zM30.269 11.273h1.408v-5.939h-1.408v5.939z"></path>
<path fill="#fff" style="fill: var(--color2, #fff)" d="M37.328 5.333v2.342h-2.764v-2.342h-1.408v5.939h1.408v-2.435h2.764v2.435h1.408v-5.939h-1.408z"></path>
<path fill="#fff" style="fill: var(--color2, #fff)" d="M44.919 11.273h1.478l-2.721-5.939h-1.391l-2.712 5.939h1.443l0.539-1.273h2.825l0.539 1.273zM42.007 8.956l0.965-2.274 0.965 2.274h-1.93z"></path>
<path fill="#000" style="fill: var(--color1, #000)" d="M9.893 21.091h-4.294v5.939h1.399l-0.009-4.819h2.894l0.009-1.12z"></path>
<path fill="#000" style="fill: var(--color1, #000)" d="M13.385 21.091h-2.634v5.939h1.408v-1.638h1.226c1.625 0 2.642-0.823 2.642-2.147 0-1.332-1.017-2.155-2.642-2.155zM13.307 24.273h-1.147v-2.062h1.147c0.86 0 1.295 0.382 1.295 1.035 0 0.645-0.435 1.027-1.295 1.027z"></path>
<path fill="#000" style="fill: var(--color1, #000)" d="M19.944 27.133c1.912 0 3.329-1.298 3.329-3.072s-1.417-3.072-3.329-3.072c-1.921 0-3.329 1.307-3.329 3.072s1.408 3.072 3.329 3.072zM19.944 25.962c-1.087 0-1.904-0.772-1.904-1.901s0.817-1.901 1.904-1.901c1.086 0 1.904 0.772 1.904 1.901s-0.817 1.901-1.904 1.901z"></path>
<path fill="#000" style="fill: var(--color1, #000)" d="M31.216 27.031l-0.009-5.939h-1.165l-2.242 3.691-2.277-3.691h-1.165v5.939h1.321v-3.487l1.791 2.859h0.626l1.791-2.927 0.009 3.555h1.321z"></path>
<path fill="#000" style="fill: var(--color1, #000)" d="M37.386 27.031h1.478l-2.721-5.939h-1.391l-2.712 5.939h1.443l0.539-1.273h2.825l0.539 1.273zM34.474 24.714l0.965-2.274 0.965 2.274h-1.93z"></path>
<path fill="#000" style="fill: var(--color1, #000)" d="M45.145 25.911v-4.819h-4.676l-0.070 1.858c-0.061 1.663-0.261 2.936-1.052 2.961h-0.243l-0.009 2.35h1.304v-1.23h4.294v1.23h1.304v-2.35h-0.852zM41.642 23.077l0.026-0.865h2.086v3.699h-2.721c0.417-0.484 0.556-1.57 0.608-2.834z"></path>
</symbol>
<symbol id="icon-logo1-2" viewBox="0 0 106 32">
<path fill="#333" style="fill: var(--color3, #333)" d="M42.962 16.421h2.356l-2.857-8.331h-2.645l-2.851 8.331h2.144l0.548-1.83h2.774l0.53 1.83zM41.001 9.967h0.112l0.913 3.1h-1.956l0.931-3.1z"></path>
<path fill="#333" style="fill: var(--color3, #333)" d="M46.619 16.421h2.079v-8.833h-2.079v8.833z"></path>
<path fill="#333" style="fill: var(--color3, #333)" d="M50.908 8.524v1.559h-1.007v1.518h1.007v3.060c0 1.259 0.678 1.772 2.403 1.772 0.395 0 0.778-0.035 0.995-0.081v-1.455c-0.153 0.017-0.283 0.029-0.524 0.029-0.542 0-0.795-0.237-0.795-0.722v-2.604h1.319v-1.518h-1.319v-1.559h-2.080z"></path>
<path fill="#333" style="fill: var(--color3, #333)" d="M58.607 11.295c0.695 0 1.131 0.445 1.166 1.195h-2.38c0.053-0.727 0.53-1.195 1.214-1.195zM59.849 14.528c-0.141 0.375-0.559 0.595-1.166 0.595-0.795 0-1.284-0.52-1.302-1.357v-0.104h4.412v-0.566c0-2.049-1.178-3.25-3.199-3.25-2.032 0-3.263 1.287-3.263 3.406 0 2.107 1.201 3.32 3.293 3.32 1.697 0 2.898-0.791 3.128-2.044h-1.903z"></path>
<path fill="#333" style="fill: var(--color3, #333)" d="M63.089 16.421h2.079v-3.4c0-0.895 0.613-1.403 1.532-1.403 0.319 0 0.736 0.052 0.895 0.116v-1.738c-0.153-0.063-0.477-0.098-0.754-0.098-0.818 0-1.455 0.508-1.614 1.155h-0.112v-1.056h-2.026v6.425z"></path>
<path fill="#333" style="fill: var(--color3, #333)" d="M68.719 16.421h2.079v-3.672c0-0.739 0.406-1.235 1.084-1.235 0.707 0 1.031 0.433 1.031 1.212v3.695h2.085v-4.151c0-1.541-0.759-2.425-2.221-2.425-0.948 0-1.632 0.468-1.92 1.195h-0.112v-1.045h-2.026v6.425z"></path>
<path fill="#333" style="fill: var(--color3, #333)" d="M79.111 15.093c-0.524 0-0.872-0.254-0.872-0.664 0-0.387 0.324-0.623 0.943-0.67l1.101-0.069v0.421c0 0.554-0.513 0.981-1.172 0.981zM78.351 16.519c0.831 0 1.549-0.346 1.843-0.895h0.112v0.797h2.026v-4.382c0-1.386-1.031-2.194-2.839-2.194-1.773 0-2.933 0.774-3.028 2.021h1.873c0.135-0.341 0.489-0.52 1.036-0.52 0.577 0 0.907 0.26 0.907 0.693v0.502l-1.431 0.081c-1.691 0.098-2.621 0.779-2.621 1.951 0 1.178 0.86 1.946 2.121 1.946z"></path>
<path fill="#333" style="fill: var(--color3, #333)" d="M84.435 8.524v1.559h-1.007v1.518h1.007v3.060c0 1.259 0.677 1.772 2.403 1.772 0.395 0 0.777-0.035 0.995-0.081v-1.455c-0.153 0.017-0.283 0.029-0.524 0.029-0.542 0-0.795-0.237-0.795-0.722v-2.604h1.319v-1.518h-1.319v-1.559h-2.079z"></path>
<path fill="#333" style="fill: var(--color3, #333)" d="M89.207 16.421h2.085v-6.425h-2.085v6.425zM90.249 9.136c0.607 0 1.107-0.468 1.107-1.062s-0.501-1.068-1.107-1.068-1.107 0.473-1.107 1.068c0 0.595 0.501 1.062 1.107 1.062z"></path>
<path fill="#333" style="fill: var(--color3, #333)" d="M99.161 9.996h-2.191l-1.113 4.595h-0.112l-1.136-4.595h-2.244l2.209 6.425h2.403l2.185-6.425z"></path>
<path fill="#333" style="fill: var(--color3, #333)" d="M102.891 11.295c0.695 0 1.131 0.445 1.166 1.195h-2.379c0.053-0.727 0.53-1.195 1.214-1.195zM104.133 14.528c-0.142 0.375-0.559 0.595-1.166 0.595-0.795 0-1.284-0.52-1.302-1.357v-0.104h4.412v-0.566c0-2.049-1.178-3.25-3.199-3.25-2.032 0-3.263 1.287-3.263 3.406 0 2.107 1.201 3.32 3.293 3.32 1.697 0 2.898-0.791 3.128-2.044h-1.903z"></path>
<path fill="#333" style="fill: var(--color3, #333)" d="M63.618 24.404c0.948 0 1.647-0.548 1.764-1.371h-0.657c-0.118 0.471-0.544 0.768-1.107 0.768-0.766 0-1.243-0.609-1.243-1.579 0-0.973 0.477-1.582 1.24-1.582 0.56 0 0.987 0.329 1.11 0.84h0.657c-0.106-0.849-0.831-1.443-1.767-1.443-1.181 0-1.914 0.834-1.914 2.185 0 1.348 0.736 2.182 1.917 2.182z"></path>
<path fill="#333" style="fill: var(--color3, #333)" d="M69.449 20.037c-1.219 0-1.985 0.837-1.985 2.182 0 1.342 0.748 2.185 1.985 2.185 1.228 0 1.982-0.846 1.982-2.185 0-1.342-0.76-2.182-1.982-2.182zM69.449 20.64c0.804 0 1.308 0.612 1.308 1.579 0 0.961-0.501 1.582-1.308 1.582-0.819 0-1.311-0.621-1.311-1.582 0-0.967 0.507-1.579 1.311-1.579z"></path>
<path fill="#333" style="fill: var(--color3, #333)" d="M78.014 24.303v-4.165h-0.771l-1.355 3.187h-0.050l-1.352-3.187h-0.772v4.165h0.613v-3.008h0.041l1.246 2.91h0.501l1.246-2.91h0.041v3.008h0.613z"></path>
<path fill="#333" style="fill: var(--color3, #333)" d="M84.768 24.303v-4.165h-0.772l-1.355 3.187h-0.050l-1.352-3.187h-0.771v4.165h0.613v-3.008h0.041l1.246 2.91h0.501l1.246-2.91h0.041v3.008h0.613z"></path>
<path fill="#333" style="fill: var(--color3, #333)" d="M89.919 23.715h-2.038v-1.25h1.929v-0.56h-1.929v-1.178h2.038v-0.589h-2.698v4.165h2.698v-0.589z"></path>
<path fill="#333" style="fill: var(--color3, #333)" d="M92.92 20.707h0.931c0.51 0 0.822 0.274 0.822 0.727 0 0.465-0.295 0.73-0.804 0.73h-0.948v-1.458zM92.92 22.716h0.931l0.866 1.588h0.763l-0.954-1.694c0.518-0.173 0.825-0.629 0.825-1.189 0-0.782-0.551-1.282-1.408-1.282h-1.681v4.165h0.659v-1.588z"></path>
<path fill="#333" style="fill: var(--color3, #333)" d="M99.42 24.404c0.948 0 1.647-0.548 1.764-1.371h-0.656c-0.118 0.471-0.545 0.768-1.107 0.768-0.766 0-1.243-0.609-1.243-1.579 0-0.973 0.478-1.582 1.24-1.582 0.559 0 0.987 0.329 1.11 0.84h0.656c-0.106-0.849-0.831-1.443-1.767-1.443-1.181 0-1.914 0.834-1.914 2.185 0 1.348 0.736 2.182 1.917 2.182z"></path>
<path fill="#333" style="fill: var(--color3, #333)" d="M106.138 23.715h-2.038v-1.25h1.929v-0.56h-1.929v-1.178h2.038v-0.589h-2.698v4.165h2.698v-0.589z"></path>
<path fill="#333" style="fill: var(--color3, #333)" d="M8.591 14.044l-8.591 7.642 3.483 1.109 5.108-8.751z"></path>
<path fill="#333" style="fill: var(--color3, #333)" d="M20.080 28.080l10.004 3.186-0.678-3.186h-9.327z"></path>
<path fill="#333" style="fill: var(--color3, #333)" d="M25.914 11.666l-2.331-10.959-2.676 2.381 5.007 8.578z"></path>
<path fill="#019ad2" style="fill: var(--color5, #019ad2)" d="M17.947 0l15.816 27.095h-31.632l15.816-27.095zM17.947 9.921l-7.149 12.248h14.299l-7.149-12.248z"></path>
</symbol>
<symbol id="icon-Group-83" viewBox="0 0 194 32">
<path fill="#333" style="fill: var(--color3, #333)" d="M13.73 16.688v14.552h-3.465v-5.966h-6.801v5.966h-3.465v-14.552h3.465v5.738h6.801v-5.738h3.465z"></path>
<path fill="#333" style="fill: var(--color3, #333)" d="M29.933 28.537v2.703h-11.592v-14.552h11.314v2.703h-7.87v3.16h6.951v2.619h-6.951v3.368h8.148z"></path>
<path fill="#333" style="fill: var(--color3, #333)" d="M33.76 16.688h3.465v11.808h7.507v2.744h-10.971v-14.552z"></path>
<path fill="#333" style="fill: var(--color3, #333)" d="M54.216 16.688c1.326 0 2.474 0.215 3.443 0.645 0.984 0.43 1.739 1.039 2.267 1.829s0.791 1.725 0.791 2.806c0 1.067-0.264 2.003-0.791 2.806-0.528 0.79-1.283 1.4-2.267 1.829-0.97 0.416-2.117 0.624-3.443 0.624h-3.016v4.012h-3.465v-14.552h6.48zM54.024 24.483c1.041 0 1.832-0.215 2.374-0.644 0.542-0.443 0.813-1.067 0.813-1.871 0-0.818-0.271-1.441-0.813-1.871-0.542-0.443-1.333-0.665-2.374-0.665h-2.823v5.052h2.823z"></path>
<path fill="#333" style="fill: var(--color3, #333)" d="M64.261 16.688h6.801c1.625 0 3.058 0.305 4.299 0.915 1.255 0.596 2.224 1.441 2.909 2.536 0.699 1.095 1.048 2.37 1.048 3.825s-0.349 2.73-1.048 3.825c-0.684 1.095-1.654 1.947-2.909 2.557-1.24 0.596-2.673 0.894-4.299 0.894h-6.801v-14.552zM70.891 28.475c1.497 0 2.688-0.402 3.572-1.206 0.898-0.818 1.347-1.919 1.347-3.305s-0.449-2.481-1.347-3.285c-0.884-0.818-2.075-1.227-3.572-1.227h-3.165v9.022h3.165z"></path>
<path fill="#333" style="fill: var(--color3, #333)" d="M94.591 28.537v2.703h-11.592v-14.552h11.314v2.703h-7.871v3.16h6.951v2.619h-6.951v3.368h8.148z"></path>
<path fill="#333" style="fill: var(--color3, #333)" d="M103.336 31.489c-1.184 0-2.331-0.152-3.444-0.457-1.097-0.319-1.981-0.728-2.651-1.226l1.176-2.536c0.642 0.457 1.405 0.825 2.289 1.102s1.768 0.416 2.652 0.416c0.984 0 1.71-0.139 2.181-0.416 0.471-0.291 0.706-0.672 0.706-1.143 0-0.346-0.142-0.631-0.427-0.852-0.271-0.236-0.628-0.423-1.069-0.561-0.428-0.139-1.013-0.291-1.754-0.457-1.141-0.263-2.074-0.527-2.802-0.79s-1.354-0.686-1.881-1.268c-0.514-0.582-0.77-1.358-0.77-2.328 0-0.845 0.235-1.608 0.706-2.287 0.471-0.693 1.176-1.24 2.117-1.642 0.955-0.402 2.118-0.603 3.486-0.603 0.955 0 1.889 0.111 2.802 0.333s1.711 0.541 2.395 0.956l-1.069 2.557c-1.384-0.762-2.766-1.143-4.15-1.143-0.969 0-1.689 0.152-2.16 0.457-0.456 0.305-0.684 0.707-0.684 1.206s0.264 0.873 0.792 1.123c0.542 0.236 1.362 0.471 2.459 0.707 1.141 0.263 2.074 0.527 2.802 0.79s1.348 0.679 1.861 1.247c0.527 0.568 0.792 1.337 0.792 2.307 0 0.832-0.243 1.594-0.728 2.287-0.471 0.679-1.183 1.22-2.138 1.621s-2.118 0.603-3.486 0.603z"></path>
<path fill="#333" style="fill: var(--color3, #333)" d="M118.579 25.523l-2.010 2.037v3.68h-3.444v-14.552h3.444v6.798l6.63-6.798h3.849l-6.201 6.486 6.566 8.066h-4.042l-4.791-5.717z"></path>
<path fill="#0085ff" style="fill: var(--color4, #0085ff)" d="M138.866 31.529c-1.212 0-2.388-0.145-3.528-0.437s-2.068-0.679-2.78-1.164l1.39-3.035c0.67 0.43 1.447 0.776 2.33 1.039s1.754 0.395 2.61 0.395c1.625 0 2.438-0.395 2.438-1.185 0-0.416-0.235-0.721-0.706-0.915-0.456-0.208-1.197-0.423-2.224-0.644-1.127-0.236-2.068-0.485-2.823-0.748-0.756-0.277-1.405-0.714-1.946-1.31s-0.813-1.4-0.813-2.411c0-0.887 0.249-1.684 0.749-2.391 0.499-0.721 1.24-1.289 2.224-1.705 0.998-0.416 2.216-0.624 3.657-0.624 0.984 0 1.953 0.111 2.908 0.333 0.955 0.208 1.797 0.52 2.523 0.935l-1.304 3.056c-1.426-0.748-2.808-1.123-4.149-1.123-0.841 0-1.454 0.125-1.839 0.374-0.385 0.236-0.578 0.547-0.578 0.936s0.228 0.679 0.684 0.873c0.456 0.194 1.191 0.395 2.203 0.603 1.141 0.236 2.082 0.492 2.823 0.769 0.756 0.263 1.404 0.693 1.946 1.289 0.556 0.582 0.834 1.379 0.834 2.391 0 0.873-0.249 1.663-0.748 2.37s-1.248 1.275-2.246 1.705c-0.998 0.416-2.21 0.624-3.636 0.624z"></path>
<path fill="#0085ff" style="fill: var(--color4, #0085ff)" d="M151.499 19.95h-4.599v-3.264h13.41v3.264h-4.577v11.288h-4.234v-11.288z"></path>
<path fill="#0085ff" style="fill: var(--color4, #0085ff)" d="M172.236 28.411h-6.33l-1.176 2.827h-4.32l6.608-14.552h4.17l6.631 14.552h-4.406l-1.176-2.827zM170.996 25.376l-1.925-4.657-1.925 4.657h3.849z"></path>
<path fill="#0085ff" style="fill: var(--color4, #0085ff)" d="M186.632 27.372h-2.31v3.867h-4.235v-14.552h6.844c1.354 0 2.531 0.222 3.528 0.665 0.999 0.43 1.768 1.053 2.31 1.871 0.542 0.804 0.813 1.753 0.813 2.848 0 1.053-0.257 1.975-0.77 2.765-0.499 0.776-1.219 1.386-2.16 1.829l3.229 4.573h-4.534l-2.716-3.867zM189.305 22.071c0-0.679-0.221-1.206-0.663-1.58s-1.098-0.561-1.968-0.561h-2.352v4.262h2.352c0.87 0 1.526-0.18 1.968-0.541 0.441-0.374 0.663-0.901 0.663-1.58z"></path>
<path fill="#0085ff" style="fill: var(--color4, #0085ff)" d="M100.021 8.838c0 1.318-1.086 2.39-2.421 2.39 1.335 0 2.421 1.072 2.421 2.39 0-1.318 1.086-2.39 2.421-2.39-1.335 0.007-2.421-1.066-2.421-2.39z"></path>
<path fill="#0085ff" style="fill: var(--color4, #0085ff)" d="M112.931 10.032c-2.004 0-3.631-1.602-3.631-3.586 0 1.978-1.623 3.586-3.631 3.586 2.003 0 3.631 1.602 3.631 3.586 0.005-1.983 1.627-3.586 3.631-3.586z"></path>
<path fill="#0085ff" style="fill: var(--color4, #0085ff)" d="M121.608 0.471c0 3.301-2.621 5.973-5.852 5.973 3.231 0 5.852 2.677 5.852 5.979 0-3.302 2.621-5.979 5.847-5.979-3.225 0-5.847-2.672-5.847-5.973z"></path>
</symbol>
</defs>
</svg>
